HIERARCHY
ROOT Hips
{
	OFFSET 0.00000 0.00000 0.00000
	CHANNELS 6 Xposition Yposition Zposition Zrotation Yrotation Xrotation 
	JOINT LHipJoint
	{
		OFFSET 0 0 0
		CHANNELS 3 Zrotation Yrotation Xrotation
		JOINT LeftUpLeg
		{
			OFFSET 1.58161 -1.81893 0.78828
			CHANNELS 3 Zrotation Yrotation Xrotation
			JOINT LeftLeg
			{
				OFFSET 2.53374 -6.96141 0.00000
				CHANNELS 3 Zrotation Yrotation Xrotation
				JOINT LeftFoot
				{
					OFFSET 2.63509 -7.23986 0.00000
					CHANNELS 3 Zrotation Yrotation Xrotation
					JOINT LeftToeBase
					{
						OFFSET 0.14115 -0.38781 2.05350
						CHANNELS 3 Zrotation Yrotation Xrotation
						End Site
						{
							OFFSET 0.00000 -0.00000 1.05543
						}
					}
				}
			}
		}
	}
	JOINT RHipJoint
	{
		OFFSET 0 0 0
		CHANNELS 3 Zrotation Yrotation Xrotation
		JOINT RightUpLeg
		{
			OFFSET -1.11138 -1.81893 0.78828
			CHANNELS 3 Zrotation Yrotation Xrotation
			JOINT RightLeg
			{
				OFFSET -2.58392 -7.09926 0.00000
				CHANNELS 3 Zrotation Yrotation Xrotation
				JOINT RightFoot
				{
					OFFSET -2.66423 -7.31992 0.00000
					CHANNELS 3 Zrotation Yrotation Xrotation
					JOINT RightToeBase
					{
						OFFSET -0.18831 -0.51739 2.12114
						CHANNELS 3 Zrotation Yrotation Xrotation
						End Site
						{
							OFFSET -0.00000 -0.00000 1.09845
						}
					}
				}
			}
		}
	}
	JOINT LowerBack
	{
		OFFSET 0 0 0
		CHANNELS 3 Zrotation Yrotation Xrotation
		JOINT Spine
		{
			OFFSET -0.01511 1.97958 -0.08829
			CHANNELS 3 Zrotation Yrotation Xrotation
			JOINT Spine1
			{
				OFFSET 0.08344 1.97334 -0.04330
				CHANNELS 3 Zrotation Yrotation Xrotation
				JOINT Neck
				{
					OFFSET 0 0 0
					CHANNELS 3 Zrotation Yrotation Xrotation
					JOINT Neck1
					{
						OFFSET 0.00559 1.76246 0.31246
						CHANNELS 3 Zrotation Yrotation Xrotation
						JOINT Head
						{
							OFFSET -0.07011 1.80354 -0.30524
							CHANNELS 3 Zrotation Yrotation Xrotation
							End Site
							{
								OFFSET -0.02385 1.83547 -0.13906
							}
						}
					}
				}
				JOINT LeftShoulder
				{
					OFFSET 0 0 0
					CHANNELS 3 Zrotation Yrotation Xrotation
					JOINT LeftArm
					{
						OFFSET 3.20667 1.30156 -0.60240
						CHANNELS 3 Zrotation Yrotation Xrotation
						JOINT LeftForeArm
						{
							OFFSET 4.95663 -0.00000 0.00000
							CHANNELS 3 Zrotation Yrotation Xrotation
							JOINT LeftHand
							{
								OFFSET 3.38177 -0.00000 0.00000
								CHANNELS 3 Zrotation Yrotation Xrotation
								JOINT LeftFingerBase
								{
									OFFSET 0 0 0
									CHANNELS 3 Zrotation Yrotation Xrotation
									JOINT LeftHandIndex1
									{
										OFFSET 0.66291 -0.00000 0.00000
										CHANNELS 3 Zrotation Yrotation Xrotation
										End Site
										{
											OFFSET 0.53445 -0.00000 0.00000
										}
									}
								}
								JOINT LThumb
								{
									OFFSET 0 0 0
									CHANNELS 3 Zrotation Yrotation Xrotation
									End Site
									{
										OFFSET 0.54261 -0.00000 0.54261
									}
								}
							}
						}
					}
				}
				JOINT RightShoulder
				{
					OFFSET 0 0 0
					CHANNELS 3 Zrotation Yrotation Xrotation
					JOINT RightArm
					{
						OFFSET -3.06877 1.34672 -0.60964
						CHANNELS 3 Zrotation Yrotation Xrotation
						JOINT RightForeArm
						{
							OFFSET -5.08365 -0.00000 0.00000
							CHANNELS 3 Zrotation Yrotation Xrotation
							JOINT RightHand
							{
								OFFSET -3.35984 -0.00000 0.00000
								CHANNELS 3 Zrotation Yrotation Xrotation
								JOINT RightFingerBase
								{
									OFFSET 0 0 0
									CHANNELS 3 Zrotation Yrotation Xrotation
									JOINT RightHandIndex1
									{
										OFFSET -0.82076 -0.00000 0.00000
										CHANNELS 3 Zrotation Yrotation Xrotation
										End Site
										{
											OFFSET -0.66172 -0.00000 0.00000
										}
									}
								}
								JOINT RThumb
								{
									OFFSET 0 0 0
									CHANNELS 3 Zrotation Yrotation Xrotation
									End Site
									{
										OFFSET -0.67182 -0.00000 0.67182
									}
								}
							}
						}
					}
				}
			}
		}
	}
}
MOTION
Frames: 7
Frame Time: .0083333
-6.5779 17.4980 2.2945 -11.0707 51.6546 2.3113 0.0000 0.0000 0.0000 2.1684 13.8103 -11.4839 2.0569 8.9837 25.7444 -0.1131 12.4778 -16.1962 1.0792 -6.6030 -18.5445 0.0000 0.0000 0.0000 23.5390 19.6951 -30.2524 -4.5100 -12.8098 38.6606 1.6606 24.3901 -1.9652 -1.7393 -8.3004 23.6304 -11.8510 -9.1399 5.6383 -2.1900 -12.7592 1.2173 4.5928 -6.3595 0.2095 3.0342 19.9904 -7.8202 -14.6285 30.4174 16.9961 -1.5477 13.3037 9.4580 -0.0000 -0.0000 0.0000 164.0053 -46.8473 -175.3561 21.6057 -32.5285 -6.3725 -0.0000 -0.0000 7.2788 30.9307 -2.8243 -1.6912 -7.1250 0.0000 -0.0000 -6.5754 -63.2776 -177.0772 -0.0000 -0.0000 0.0000 31.7718 49.3612 -23.0428 -121.8489 55.7968 -87.1927 0.0000 0.0000 1.3689 -71.4351 17.6712 -42.1080 7.1250 -0.0000 -0.0000 -25.4156 11.4327 -33.0059
-6.5855 17.5085 2.2659 -11.2129 51.8535 2.2717 0.0000 0.0000 0.0000 2.1185 13.9656 -12.0077 2.0857 9.0423 25.9279 -0.1380 12.5452 -15.9331 1.1851 -6.9086 -19.4448 0.0000 0.0000 0.0000 23.4984 19.7070 -30.3306 -4.4740 -12.7658 38.4979 1.6097 24.0983 -2.0754 -1.8335 -8.5102 24.2748 -11.7795 -9.1267 5.6852 -2.1589 -12.7349 1.3229 4.5857 -6.3558 0.2835 2.9601 19.9922 -7.7518 -14.8398 30.3905 16.6424 -1.6249 13.3037 9.3465 0.0000 0.0000 0.0000 164.1337 -47.0363 -175.3691 21.4982 -32.4053 -6.3148 -0.0000 -0.0000 7.2804 30.2267 -2.4060 -1.4011 -7.1250 0.0000 -0.0000 -5.4281 -62.7821 -177.6520 0.0000 0.0000 0.0000 32.3541 49.7136 -22.7888 -121.3725 55.9330 -86.7984 0.0000 0.0000 0.5182 -71.4164 17.4202 -41.6826 7.1250 -0.0000 -0.0000 -25.4675 10.9904 -32.9392
-6.5944 17.5104 2.2348 -11.2030 52.0987 2.3286 0.0000 0.0000 0.0000 1.9848 14.0849 -12.5047 2.1266 9.1249 26.1867 -0.1593 12.5096 -15.5497 1.3682 -7.4028 -20.9144 0.0000 0.0000 0.0000 23.3528 19.5883 -30.4554 -4.4334 -12.7158 38.3138 1.5752 23.8482 -2.0414 -1.8845 -8.6213 24.6176 -11.8272 -9.1158 5.7877 -2.1360 -12.7290 1.4055 4.6412 -6.3585 0.3291 2.9892 19.9616 -7.6311 -15.0927 30.3335 16.3601 -1.7303 13.2890 9.2717 0.0000 0.0000 0.0000 164.3761 -47.2116 -175.6522 21.3977 -32.2897 -6.2611 -0.0000 -0.0000 7.2429 29.2960 -1.8457 -1.0353 -7.1250 0.0000 -0.0000 -3.9658 -62.1253 -178.3471 0.0000 0.0000 0.0000 33.0745 50.0266 -22.3671 -120.8270 56.0855 -86.3461 0.0000 -0.0000 -0.1920 -71.1524 17.2065 -40.9121 7.1250 -0.0000 -0.0000 -25.3772 10.3063 -32.5624
-6.6027 17.5202 2.2032 -11.2598 52.3888 2.3293 0.0000 0.0000 0.0000 1.8340 14.3358 -13.1275 2.1635 9.1986 26.4186 -0.2155 12.6804 -14.9375 1.6111 -8.0041 -22.7265 0.0000 0.0000 0.0000 23.2556 19.4003 -30.5770 -4.3916 -12.6640 38.1234 1.5414 23.6186 -2.0503 -1.8577 -8.5631 24.4379 -11.9014 -9.1242 5.8820 -2.0359 -12.7496 1.4875 4.7844 -6.3781 0.4069 2.8385 19.9303 -8.0269 -14.8241 30.3644 16.8377 -1.5759 13.2523 9.4403 0.0000 0.0000 0.0000 164.5383 -47.4233 -175.9316 21.1800 -32.0379 -6.1452 -0.0000 -0.0000 7.4572 28.6138 -1.3563 -0.7398 -7.1250 0.0000 -0.0000 -2.9257 -61.5597 -178.8202 0.0000 0.0000 0.0000 33.7611 50.3714 -21.8695 -120.2982 56.2300 -85.9069 0.0000 -0.0000 -1.0188 -70.7149 16.9995 -39.8806 7.1250 -0.0000 -0.0000 -25.1938 9.4286 -31.9686
-6.6105 17.5365 2.1686 -11.3218 52.6962 2.3840 0.0000 0.0000 0.0000 1.6496 14.4097 -13.7249 2.1908 9.2526 26.5888 -0.2156 12.6777 -14.9310 1.6156 -8.0147 -22.7589 0.0000 0.0000 0.0000 23.1099 19.3247 -30.7336 -4.3533 -12.6163 37.9485 1.4856 23.3359 -2.2821 -1.5525 -7.8641 22.3022 -11.9806 -9.1141 5.9067 -1.9221 -12.7344 1.5894 4.9295 -6.3844 0.5426 2.6103 19.8744 -8.4773 -14.5466 30.3478 17.2330 -1.4171 13.1953 9.5722 0.0000 0.0000 0.0000 164.6571 -47.6141 -175.9555 20.9494 -31.7692 -6.0233 -0.0000 -0.0000 7.5401 28.1309 -0.9482 -0.5069 -7.1250 0.0000 -0.0000 -2.2062 -61.0930 -179.1349 0.0000 0.0000 0.0000 34.3984 50.6966 -21.4799 -119.6578 56.4004 -85.3740 0.0000 -0.0000 -2.0039 -70.6867 17.2804 -40.2848 7.1250 -0.0000 -0.0000 -25.1073 9.8710 -31.9909
-6.6198 17.5473 2.1305 -11.3918 52.9959 2.4355 0.0000 0.0000 0.0000 1.4930 14.2970 -14.2008 2.2182 9.3064 26.7586 -0.1811 12.5462 -15.2668 1.4976 -7.7302 -21.8976 0.0000 0.0000 0.0000 22.9403 19.3143 -30.8933 -4.3142 -12.5672 37.7691 1.4221 23.0068 -2.5440 -1.2847 -7.1825 20.2572 -12.0241 -9.0467 5.9799 -1.8283 -12.6501 1.6745 5.0511 -6.3516 0.6095 2.5125 19.7856 -8.5032 -14.5780 30.2239 17.1682 -1.4376 13.1368 9.5334 0.0000 0.0000 0.0000 164.9558 -47.6703 -176.1765 20.7374 -31.5206 -5.9121 -0.0000 -0.0000 7.4571 27.7071 -0.9199 -0.4831 -7.1250 0.0000 -0.0000 -1.6060 -61.0577 -179.3717 0.0000 0.0000 0.0000 35.1201 50.8546 -21.0475 -119.1614 56.5293 -84.9602 0.0000 -0.0000 -2.9313 -70.7664 17.4542 -40.6857 7.1250 -0.0000 -0.0000 -25.1061 10.2577 -32.1232
-6.6305 17.5505 2.0897 -11.6095 53.3705 2.3584 0.0000 0.0000 0.0000 1.4380 14.2130 -14.7152 2.2380 9.3452 26.8814 -0.1454 12.3623 -15.5259 1.3124 -7.2564 -20.4772 0.0000 0.0000 0.0000 22.8622 19.1903 -31.1121 -4.2795 -12.5234 37.6095 1.3820 22.7189 -2.5553 -1.1939 -6.9332 19.5178 -11.9021 -9.0064 6.1005 -1.7456 -12.6019 1.7425 5.0900 -6.3311 0.5996 2.5082 19.7086 -8.4738 -14.5760 30.1224 17.2113 -1.4551 13.0903 9.5332 -0.0000 0.0000 0.0000 165.3940 -47.7350 -176.6373 20.5084 -31.2500 -5.7928 -0.0000 -0.0000 7.4736 27.1978 -0.8823 -0.4534 -7.1250 0.0000 -0.0000 -0.8871 -61.0117 -179.6539 -0.0000 0.0000 0.0000 36.0608 50.9958 -20.4579 -118.7377 56.6370 -84.6066 0.0000 -0.0000 -3.7549 -70.5022 17.2996 -40.0250 7.1250 -0.0000 -0.0000 -25.0033 9.6856 -31.7653
